<svg width="250" height="250" viewBox="0 0 250 250" fill="none" xmlns="http://www.w3.org/2000/svg">
<rect width="250" height="250" rx="125" fill="#394867" fill-opacity="0.97"/>
<g filter="url(#filter0_d_6_51)">
<path d="M75.504 148.6C71.8773 148.6 68.6987 147.811 65.968 146.232C63.28 144.611 61.1893 142.328 59.696 139.384C58.2027 136.397 57.456 132.941 57.456 129.016C57.456 123.341 58.5653 118.349 60.784 114.04C63.0027 109.731 65.968 106.424 69.68 104.12C73.392 101.773 77.4453 100.6 81.84 100.6C83.9733 100.6 85.552 100.92 86.576 101.56C87.6 102.157 88.112 103.117 88.112 104.44C88.112 104.909 88.0693 105.336 87.984 105.72C87.8987 106.061 87.7707 106.445 87.6 106.872C87.0453 106.744 86.4053 106.637 85.68 106.552C84.9547 106.424 84.336 106.36 83.824 106.36C80.4533 106.36 77.3813 107.299 74.608 109.176C71.8773 111.053 69.7013 113.699 68.08 117.112C66.5013 120.483 65.712 124.365 65.712 128.76C65.712 133.795 66.736 137.613 68.784 140.216C70.8747 142.819 73.6907 144.12 77.232 144.12C79.5787 144.12 81.9467 143.352 84.336 141.816C86.768 140.237 88.8373 138.04 90.544 135.224C92.2933 132.365 93.4027 129.123 93.872 125.496C91.312 124.344 89.4773 122.893 88.368 121.144C87.3013 119.352 86.768 117.347 86.768 115.128C86.768 113.037 87.3653 111.309 88.56 109.944C89.7547 108.536 91.248 107.832 93.04 107.832C95.216 107.832 96.9227 108.813 98.16 110.776C99.3973 112.696 100.016 115.363 100.016 118.776C100.016 124.323 98.9493 129.379 96.816 133.944C94.7253 138.467 91.8027 142.051 88.048 144.696C84.336 147.299 80.1547 148.6 75.504 148.6ZM122.169 148.6C117.348 148.6 113.465 147.896 110.521 146.488C107.62 145.037 106.169 143.032 106.169 140.472C106.169 139.533 106.404 138.659 106.873 137.848C107.385 136.995 108.068 136.312 108.921 135.8C110.244 138.403 112.036 140.408 114.297 141.816C116.601 143.181 119.097 143.864 121.785 143.864C125.454 143.864 128.398 143.224 130.617 141.944C132.836 140.664 133.945 138.829 133.945 136.44C133.945 135.245 133.497 134.2 132.601 133.304C131.748 132.408 130.638 131.661 129.273 131.064C127.95 130.424 126.137 129.677 123.833 128.824C120.676 127.672 118.116 126.584 116.153 125.56C114.233 124.536 112.569 123.171 111.161 121.464C109.753 119.715 109.049 117.56 109.049 115C109.049 112.227 109.988 109.752 111.865 107.576C113.785 105.357 116.452 103.629 119.865 102.392C123.321 101.155 127.289 100.536 131.769 100.536C134.372 100.536 136.697 100.813 138.745 101.368C140.836 101.88 142.457 102.605 143.609 103.544C144.804 104.483 145.401 105.571 145.401 106.808C145.401 108.6 144.804 109.987 143.609 110.968C142.457 111.907 140.921 112.376 139.001 112.376C137.038 112.376 135.396 111.8 134.073 110.648C132.75 109.453 131.748 107.725 131.065 105.464C126.756 105.976 123.385 107.021 120.953 108.6C118.521 110.136 117.305 111.971 117.305 114.104C117.305 115.213 117.732 116.195 118.585 117.048C119.438 117.859 120.505 118.563 121.785 119.16C123.065 119.715 124.878 120.44 127.225 121.336C130.34 122.445 132.9 123.512 134.905 124.536C136.91 125.56 138.617 126.925 140.025 128.632C141.476 130.339 142.201 132.451 142.201 134.968C142.201 137.443 141.412 139.725 139.833 141.816C138.297 143.864 136.014 145.507 132.985 146.744C129.998 147.981 126.393 148.6 122.169 148.6ZM187.31 148.664C185.731 148.664 184.579 148.259 183.854 147.448C183.128 146.637 182.766 145.315 182.766 143.48C182.766 140.963 183.107 137.187 183.79 132.152C184.472 127.117 185.795 118.776 187.758 107.128L185.71 103.224C188.568 101.432 191.107 100.536 193.326 100.536C195.203 100.536 196.142 101.667 196.142 103.928C196.142 104.312 195.95 105.699 195.566 108.088C195.182 110.435 194.755 113.059 194.286 115.96C193.048 123.768 192.131 129.571 191.534 133.368C190.979 137.165 190.702 139.832 190.702 141.368C190.702 142.605 190.83 143.693 191.086 144.632C191.342 145.571 191.726 146.36 192.238 147C190.574 148.109 188.931 148.664 187.31 148.664ZM158.894 148.664C157.315 148.664 156.163 148.259 155.438 147.448C154.712 146.637 154.35 145.315 154.35 143.48C154.35 141.005 154.691 137.251 155.374 132.216C156.056 127.181 157.358 118.819 159.278 107.128L157.294 103.224C160.152 101.432 162.691 100.536 164.91 100.536C166.787 100.536 167.726 101.667 167.726 103.928C167.726 104.312 167.534 105.699 167.15 108.088C166.766 110.435 166.339 113.059 165.87 115.96C164.632 123.768 163.715 129.571 163.118 133.368C162.563 137.165 162.286 139.832 162.286 141.368C162.286 142.605 162.414 143.693 162.67 144.632C162.926 145.571 163.31 146.36 163.822 147C162.158 148.109 160.515 148.664 158.894 148.664ZM161.134 123.832H187.886L187.054 128.376H160.174L161.134 123.832Z" fill="white"/>
</g>
<path d="M123.188 49.625H128.812V45.25H133.5V40H128.812V35.625H123.188V40H118.5V45.25H123.188V49.625ZM126 61C121.656 59.9792 118.071 57.6528 115.243 54.021C112.414 50.3903 111 46.3583 111 41.925V31.25L126 26L141 31.25V41.925C141 46.3583 139.586 50.3903 136.759 54.021C133.93 57.6528 130.344 59.9792 126 61ZM126 57.325C129.25 56.3625 131.937 54.4375 134.062 51.55C136.187 48.6625 137.25 45.4542 137.25 41.925V33.6562L126 29.7188L114.75 33.6562V41.925C114.75 45.4542 115.812 48.6625 117.937 51.55C120.062 54.4375 122.75 56.3625 126 57.325Z" fill="#FF0063"/>
<path d="M134.934 216.448C134.934 219.762 128.234 222.451 119.968 222.451C111.702 222.451 105 219.762 105 216.448C105 213.13 111.702 210.443 119.968 210.443C128.234 210.443 134.934 213.13 134.934 216.448Z" fill="#A6A8AB"/>
<path d="M130.033 223.359C138.299 223.359 145 220.671 145 217.356C145 214.041 138.299 211.353 130.033 211.353C121.768 211.353 115.067 214.041 115.067 217.356C115.067 220.671 121.768 223.359 130.033 223.359Z" fill="#A6A8AB"/>
<path d="M125.542 221.302C119.212 221.302 113.535 219.914 109.688 217.719C109.649 218.015 109.626 218.315 109.626 218.619C109.626 224.351 116.641 228.998 125.294 228.998C133.947 228.998 140.962 224.35 140.962 218.619C140.962 218.4 140.95 218.185 140.928 217.971C137.099 220.019 131.621 221.302 125.541 221.302" fill="#D0D2D3"/>
<path d="M117.489 220.509C114.469 219.886 111.8 218.926 109.689 217.721C109.651 218.017 109.627 218.317 109.627 218.621C109.627 224.353 116.642 229 125.295 229C125.977 229 126.647 228.967 127.308 228.912C122.054 227.541 118.189 224.351 117.489 220.509Z" fill="#B6B6B7"/>
<path d="M142.794 213.609C142.794 217.484 134.958 220.625 125.299 220.625C115.636 220.625 107.802 217.48 107.802 213.609C107.802 209.733 115.636 206.588 125.299 206.588C134.958 206.588 142.794 209.731 142.794 213.609Z" fill="#D0D2D3"/>
<path d="M125.173 219.342C133.439 219.342 140.14 216.654 140.14 213.338C140.14 210.021 133.439 207.333 125.173 207.333C116.907 207.333 110.206 210.021 110.206 213.338C110.206 216.654 116.907 219.342 125.173 219.342Z" fill="#A6A8AB"/>
<path d="M113.65 208.56C112.566 209.523 111.43 210.415 110.306 211.328C109.306 212.139 110.583 213.628 111.632 213.053C112.61 212.52 113.581 211.998 114.616 211.584C114.204 211.045 113.791 210.507 113.38 209.967C113.108 210.409 112.804 210.83 112.47 211.227C111.75 212.138 112.667 213.679 113.796 212.953C114.543 212.474 115.277 211.995 116.056 211.57L114.561 210.068C114.294 210.516 114.085 210.972 113.872 211.45C113.473 212.338 114.379 213.671 115.367 212.954C116.171 212.374 116.931 211.782 117.653 211.101C118.624 210.191 117.397 208.889 116.329 209.375C116.268 209.441 116.212 209.506 116.154 209.573C116.023 210.075 115.892 210.576 115.762 211.076C116.194 210.801 116.671 210.605 117.17 210.495C118.243 210.183 118.186 208.715 117.17 208.376C117.072 208.342 116.974 208.309 116.876 208.276V210.397C117.364 210.212 117.84 210.103 118.352 210.002C118.07 209.331 117.79 208.66 117.509 207.991C115.735 208.872 110.115 210.283 112.104 213.351C112.417 212.797 112.732 212.247 113.048 211.695C112.85 211.675 112.652 211.656 112.454 211.635C111.236 211.376 110.55 212.958 111.611 213.646C111.982 213.913 112.375 214.145 112.789 214.339C112.974 213.655 113.158 212.972 113.341 212.288C112.882 212.318 112.425 212.35 111.966 212.388C110.551 212.496 110.566 214.457 111.966 214.586C113.412 214.718 115.292 215.114 116.642 214.363C117.071 214.121 117.312 213.909 117.632 213.554C117.858 213.303 118.096 213.066 118.337 212.831C119.433 211.767 118.044 213.143 118.048 212.3L119.695 211.352C119.53 211.253 119.366 211.153 119.202 211.055C119.017 211.737 118.835 212.42 118.649 213.104C119.024 213.252 119.396 213.4 119.768 213.545L120.322 211.497C119.734 211.428 119.139 211.428 118.551 211.497C117.717 211.591 117.202 212.356 117.607 213.152C118.325 214.56 119.961 215.106 121.41 215.434C122.783 215.75 123.365 213.63 121.991 213.314C121.135 213.119 119.941 212.91 119.501 212.044C119.184 212.593 118.872 213.145 118.555 213.697C119.143 213.63 119.737 213.63 120.325 213.697C121.475 213.826 121.722 212.183 120.877 211.648C120.142 211.185 119.509 211.001 118.651 210.905C117.519 210.777 117.234 212.43 118.101 212.952L118.592 213.25C119.311 213.685 120.232 213.125 120.237 212.3C120.25 210.617 119.05 209.704 117.544 210.658C116.921 211.056 116.403 211.645 115.916 212.19C115.156 213.037 112.975 212.478 111.97 212.387V214.586C112.428 214.551 112.886 214.519 113.344 214.49C114.361 214.421 114.927 212.979 113.898 212.44C113.484 212.247 113.089 212.015 112.719 211.747C112.437 212.419 112.156 213.087 111.878 213.758C112.264 213.842 112.657 213.889 113.051 213.898C113.855 213.915 114.446 212.937 113.994 212.241C113.72 211.815 118.093 210.151 118.617 209.892C119.79 209.311 118.927 207.653 117.773 207.882C117.265 207.983 116.788 208.094 116.298 208.277C115.29 208.658 115.23 210.039 116.298 210.397C116.398 210.43 116.495 210.464 116.594 210.495V208.376C115.885 208.585 115.281 208.773 114.661 209.177C114.211 209.473 113.893 210.191 114.269 210.682C115.174 211.867 116.12 211.876 117.437 211.274C116.995 210.7 116.552 210.124 116.112 209.548C115.53 210.09 114.915 210.594 114.269 211.057L115.765 212.561C115.98 212.084 116.185 211.627 116.454 211.178C117.033 210.208 115.901 209.159 114.956 209.673C114.177 210.099 113.443 210.579 112.697 211.057L114.02 212.783C114.459 212.225 114.885 211.671 115.274 211.077C115.773 210.316 114.937 209.102 114.038 209.463C112.826 209.949 111.679 210.53 110.533 211.153C110.974 211.73 111.417 212.307 111.86 212.883C112.982 211.971 114.118 211.076 115.201 210.115C116.26 209.176 114.707 207.629 113.653 208.561" fill="#00A551"/>
<path d="M116.599 214.464C117.267 215.206 118.078 215.484 119.046 215.636C119.143 214.916 119.24 214.195 119.338 213.475C119.131 213.468 118.928 213.414 118.744 213.317C118.645 214.038 118.55 214.758 118.453 215.48C119.797 215.481 122.301 215.632 122.72 213.858C123.221 211.738 121.652 210.009 119.826 209.267L119.533 211.427H119.731C121.019 211.427 121.147 209.676 120.021 209.267C119.368 209.03 118.741 208.807 118.123 208.489C117.938 209.171 117.756 209.855 117.569 210.539C118.182 210.571 120.652 211.198 120.448 212.109C120.33 212.63 120.532 213.049 120.949 213.352C122.314 214.336 123.66 215.467 125.339 215.835C126.581 216.108 127.203 214.532 126.182 213.825C125.981 213.687 125.76 213.583 125.527 213.516V215.636L126.216 215.438C127.568 215.05 126.991 212.926 125.633 213.318C125.405 213.386 125.175 213.453 124.944 213.516C123.884 213.821 123.922 215.313 124.944 215.636C124.989 215.665 125.034 215.695 125.077 215.725C125.358 215.053 125.64 214.384 125.92 213.714C124.446 213.388 123.252 212.318 122.055 211.454L122.556 212.696C123.167 209.963 119.794 208.458 117.569 208.338C116.496 208.281 116.054 209.896 117.017 210.389C117.803 210.789 118.615 211.087 119.442 211.388C119.538 210.667 119.634 209.948 119.733 209.226H119.535C118.217 209.226 118.157 210.947 119.245 211.388C119.708 211.576 121.341 212.97 120.282 213.229C119.714 213.37 119.035 213.283 118.455 213.279C117.128 213.279 117.087 214.992 118.163 215.438C118.543 215.597 118.934 215.636 119.34 215.675C120.562 215.799 120.846 213.707 119.631 213.516C119.045 213.424 118.58 213.389 118.147 212.911C117.199 211.857 115.656 213.416 116.602 214.464" fill="#00A551"/>
<path d="M137.802 213.637C136.863 214.044 135.921 214.439 134.996 214.877C134.023 215.339 134.482 217.01 135.548 216.927C136.599 216.843 137.608 216.613 138.645 216.433L137.581 214.598C136.263 215.767 133.719 215.514 132.072 215.516C130.861 215.517 130.546 217.425 131.78 217.676C132.909 217.904 133.923 217.884 135.053 217.676C136.096 217.482 136.109 215.736 135.053 215.556C132.972 215.199 130.932 215.394 128.836 215.5C126.588 215.618 124.334 215.223 122.086 215.178C120.654 215.151 120.708 217.245 122.086 217.377C123.334 217.496 124.506 217.53 125.741 217.338C126.787 217.178 126.797 215.367 125.741 215.218C123.438 214.891 119.825 214.302 117.947 216.064C118.389 216.006 118.831 215.95 119.274 215.892C118.193 215.431 117.221 214.885 116.029 214.841C115.26 214.813 114.581 215.823 115.085 216.494C115.308 216.797 115.534 217.095 115.755 217.396C116.256 216.895 116.754 216.395 117.252 215.892C115.627 215.004 114.248 213.989 112.327 214.05C111.264 214.085 110.8 215.546 111.775 216.099C115.364 218.137 119.647 219.231 123.769 219.183C125.184 219.165 125.175 217.037 123.769 216.984C123.019 216.953 122.274 216.899 121.523 216.87C120.303 216.822 120.015 218.794 121.234 219.031C124.546 219.675 127.814 219.412 131.127 218.919C132.375 218.732 132.034 216.757 130.837 216.757H129.937V218.956C131.333 218.952 132.913 219.004 134.179 218.303C134.658 218.039 137.25 215.421 137.463 215.537C137.99 215.821 138.651 215.672 138.96 215.142C139.224 214.688 139.509 214.255 139.745 213.786H137.859C138.149 214.121 138.373 214.499 138.531 214.914C139.103 214.47 139.677 214.027 140.249 213.583C139.495 212.649 138.629 212.147 137.524 211.721C137.048 211.538 136.542 211.845 136.288 212.226C136.094 212.466 135.946 212.728 135.838 213.016C136.412 212.943 136.983 212.867 137.555 212.793C136.771 212.104 136.206 211.268 135.315 210.704C134.418 210.138 133.174 211.294 133.818 212.208C134.052 212.54 134.27 212.812 134.551 213.108C134.905 212.496 135.26 211.883 135.616 211.271C134.561 211.039 133.604 210.705 132.518 210.669C131.824 210.643 131.254 211.392 131.463 212.058C131.582 212.483 131.732 212.898 131.911 213.301L132.676 211.946C132.402 212.048 132.199 212.159 131.971 212.342C131.586 212.651 131.581 213.278 131.799 213.674C131.971 213.964 132.121 214.265 132.248 214.578C132.659 214.038 133.073 213.5 133.482 212.962C132.238 212.745 131.363 211.394 130.452 210.595C129.566 209.821 128.615 209.46 127.472 209.312C126.215 209.152 126.038 211.139 127.181 211.472C128.684 211.909 130.176 212.055 131.736 212.075C133.163 212.096 133.123 209.983 131.736 209.876C129.508 209.705 129.057 211.034 127.709 212.455L129.575 213.232C129.487 212.39 131.195 211.91 131.754 211.715C133.141 211.223 134.265 211.454 135.557 212.151C136.801 212.821 137.905 210.923 136.662 210.249C134.614 209.144 132.893 208.979 130.714 209.752C129.223 210.279 127.191 211.356 127.389 213.228C127.483 214.121 128.538 214.761 129.255 214.005C130.071 213.147 130.364 211.965 131.736 212.07V209.871C130.372 209.853 129.078 209.73 127.763 209.348L127.472 211.508C129.737 211.799 130.609 214.681 132.904 215.077C133.888 215.247 134.553 214.373 134.14 213.46C134.014 213.149 133.864 212.848 133.692 212.56C133.633 213.002 133.576 213.446 133.521 213.891C133.433 213.947 133.348 214.004 133.263 214.061C133.771 213.875 134.262 213.296 134.026 212.708C133.844 212.307 133.694 211.891 133.578 211.466C133.225 211.929 132.875 212.395 132.522 212.858C133.393 212.889 134.196 213.199 135.035 213.382C136.096 213.616 136.881 212.365 136.099 211.545C135.969 211.396 135.84 211.243 135.711 211.09C135.21 211.592 134.713 212.094 134.213 212.596C134.922 213.041 135.386 213.792 136.011 214.341C136.496 214.767 137.412 214.803 137.727 214.119C137.835 213.832 137.984 213.568 138.177 213.329C137.766 213.499 137.353 213.666 136.942 213.836C137.715 214.133 138.189 214.495 138.704 215.13C139.532 216.156 140.932 214.852 140.42 213.798C140.263 213.385 140.035 213.004 139.747 212.671C139.3 212.054 138.267 211.869 137.861 212.671C137.622 213.139 137.341 213.573 137.076 214.027C137.573 213.894 138.074 213.764 138.573 213.632C137.35 212.97 136.376 213.227 135.411 214.196C134.736 214.869 134.332 215.584 133.53 216.153C132.517 216.869 131.12 216.75 129.945 216.752C128.536 216.755 128.536 218.951 129.945 218.951H130.844L130.553 216.792C127.648 217.224 124.729 217.467 121.824 216.903C121.725 217.623 121.629 218.344 121.531 219.062C122.281 219.093 123.026 219.148 123.777 219.178V216.979C120.039 217.021 116.142 216.044 112.884 214.196C112.702 214.881 112.517 215.563 112.334 216.245C113.824 216.199 114.912 217.106 116.156 217.788C117.041 218.27 118.352 217.221 117.652 216.282C117.429 215.98 117.205 215.68 116.979 215.378C116.664 215.931 116.351 216.482 116.036 217.033C116.813 217.061 117.48 217.489 118.176 217.786C118.648 217.987 119.103 217.985 119.5 217.614C120.613 216.572 123.796 217.14 125.17 217.333V215.213C124.141 215.369 123.125 215.27 122.095 215.173V217.372C124.119 217.411 126.129 217.673 128.154 217.71C130.276 217.75 132.363 217.307 134.479 217.671V215.551C133.786 215.725 133.061 215.725 132.368 215.551L132.078 217.71C134.418 217.707 137.272 217.8 139.133 216.147C140.036 215.351 139.049 214.141 138.071 214.31C137.231 214.452 136.408 214.655 135.556 214.722C135.739 215.406 135.924 216.086 136.109 216.77C137.032 216.334 137.975 215.937 138.913 215.532C140.204 214.971 139.087 213.078 137.809 213.636" fill="#F6921E"/>
<path d="M123.985 219.387C125.365 219.457 126.743 219.457 128.123 219.387C129.289 219.326 129.691 217.405 128.415 217.226C126.833 217.005 125.272 217.101 123.684 217.11C123.78 217.832 123.879 218.549 123.975 219.27C125.114 219.103 126.188 218.961 127.246 218.479C128.53 217.892 127.416 216 126.142 216.583C125.294 216.968 124.304 217.019 123.393 217.152C122.149 217.336 122.48 219.321 123.684 219.314C125.06 219.302 126.465 219.157 127.834 219.348C127.93 218.628 128.027 217.909 128.124 217.188C126.745 217.259 125.364 217.259 123.985 217.188C122.574 217.116 122.582 219.318 123.985 219.39M134.225 212.991C132.441 213.528 130.658 213.849 128.796 213.934C127.626 213.987 127.233 215.921 128.505 216.094C128.85 216.146 129.2 216.159 129.548 216.134C130.708 216.055 131.127 214.182 129.841 213.976C129.758 213.961 129.675 213.948 129.592 213.935C129.846 214.19 130.103 214.447 130.356 214.705C130.327 215.106 130.336 215.11 130.379 214.716C130.361 214.548 130.336 214.381 130.304 214.215C130.06 212.819 127.956 213.412 128.195 214.798C128.1 214.25 128.204 215.175 128.248 215.289C128.44 215.777 128.745 216.012 129.259 216.095C129.356 215.375 129.454 214.655 129.548 213.935C129.394 213.943 129.241 213.957 129.088 213.976C128.992 214.694 128.895 215.414 128.797 216.134C130.835 216.043 132.854 215.699 134.807 215.109C136.155 214.706 135.579 212.583 134.225 212.991ZM123.909 209.554C125.718 209.549 127.523 209.494 129.328 209.629C129.231 208.909 129.134 208.188 129.036 207.469C128.343 207.637 127.63 207.604 126.919 207.658C125.713 207.747 125.402 209.456 126.63 209.817C127.255 210.002 127.948 210.056 128.552 210.311C128.638 209.641 128.722 208.97 128.812 208.302C127.574 208.762 126.327 209.179 125.05 209.512C124.279 209.713 123.954 210.793 124.567 211.35C124.841 211.598 125.08 211.843 125.391 212.051V210.155C125.24 210.255 125.09 210.356 124.94 210.458C124.394 210.823 124.151 211.699 124.718 212.185C125.042 212.465 125.314 212.75 125.691 212.962L125.952 210.95C125.677 211.069 125.465 211.18 125.244 211.385C124.759 211.833 124.832 212.821 125.465 213.112C125.706 213.222 125.922 213.318 126.18 213.372C127.555 213.66 128.141 211.541 126.762 211.253C126.697 211.239 126.634 211.225 126.57 211.213L126.791 212.939C126.707 212.983 126.621 213.028 126.535 213.071C127.349 212.729 127.709 211.571 126.796 211.06C126.587 210.942 126.446 210.783 126.265 210.626C126.19 211.202 126.12 211.777 126.043 212.352C126.195 212.254 126.345 212.153 126.495 212.05C127.196 211.581 127.2 210.62 126.495 210.148C126.373 210.025 126.246 209.906 126.116 209.791C125.953 210.404 125.793 211.016 125.631 211.629C126.908 211.297 128.158 210.878 129.393 210.417C130.162 210.133 130.622 208.819 129.654 208.409C128.857 208.07 128.036 207.936 127.211 207.692C127.115 208.413 127.015 209.133 126.919 209.852C127.829 209.786 128.726 209.803 129.619 209.586C130.876 209.283 130.507 207.514 129.327 207.426C127.523 207.292 125.717 207.345 123.909 207.35C122.499 207.359 122.499 209.556 123.909 209.554M131.82 209.816C133.548 210.366 135.173 211.155 136.75 212.051C137.03 211.381 137.311 210.711 137.592 210.042C137.146 209.918 136.708 209.897 136.249 209.85C135.76 209.798 135.328 210.226 135.193 210.656C135.393 210.011 136.143 210.037 135.622 210.052C135.343 210.053 135.061 210.024 134.787 209.999C134.296 209.953 133.807 209.867 133.314 209.85C132.344 209.815 131.887 211.066 132.541 211.727C133.048 212.241 133.588 212.392 134.291 212.426C135.704 212.501 135.696 210.303 134.291 210.227C134.226 210.208 134.156 210.19 134.089 210.171C133.83 210.796 133.575 211.422 133.316 212.05C134.514 212.089 136.801 212.864 137.304 211.241C136.952 211.512 136.602 211.78 136.25 212.05C136.506 212.064 136.761 212.103 137.013 212.161C138.207 212.491 138.943 210.77 137.854 210.15C136.118 209.163 134.307 208.3 132.403 207.694C131.05 207.267 130.478 209.393 131.82 209.816ZM137.959 213.876C137.721 214.147 137.472 214.401 137.197 214.633C137.264 214.586 137.243 214.6 137.136 214.679C137.071 214.725 137.006 214.768 136.94 214.813C136.872 214.855 136.803 214.895 136.733 214.933C136.752 214.921 136.406 215.096 136.562 215.029C136.012 215.26 135.626 215.748 135.797 216.383C135.94 216.903 136.592 217.383 137.143 217.15C138.072 216.759 138.837 216.189 139.509 215.431C139.904 214.983 139.946 214.317 139.509 213.875C139.103 213.473 138.355 213.428 137.959 213.875M115.032 216.511C115.611 216.512 116.185 216.59 116.761 216.664C117.355 216.738 117.854 216.106 117.854 215.564C117.854 214.906 117.352 214.539 116.761 214.463C116.185 214.392 115.611 214.318 115.032 214.312C114.433 214.307 113.937 214.818 113.937 215.414C113.937 216.017 114.433 216.506 115.032 216.511Z" fill="#A87C4F"/>
<path d="M119.677 192.339C116.351 193.885 114.962 196.704 116.521 199.843C117.451 201.716 118.931 203.328 120.134 205.063C121.669 207.28 121.639 209.308 120.42 211.65C119.944 212.56 121.462 213.357 121.94 212.441C123.663 209.138 123.299 206.536 121.124 203.517C118.788 200.273 115.154 196.207 120.566 193.693C121.575 193.224 120.683 191.87 119.677 192.337" fill="#E6E7E8"/>
<path d="M125.446 214.27C127.012 212.512 127.37 210.732 126.571 208.598C125.696 206.262 123.968 204.362 123.94 201.802C123.916 199.681 125.096 197.615 125.917 195.673C126.759 193.678 127.18 191.681 126.728 189.566C126.518 188.575 124.823 188.994 125.029 189.983C125.837 193.794 122.847 197.105 122.27 200.765C122.003 202.47 122.368 204.137 123.152 205.697C124.386 208.148 126.437 210.647 124.199 213.162C123.503 213.946 124.74 215.058 125.446 214.269" fill="#E6E7E8"/>
<path d="M130.875 211.835C130.854 210.112 130.599 208.539 129.971 206.909C129.675 206.148 129.172 205.48 128.898 204.709C128.622 203.936 129.17 203.021 129.566 202.377C130.898 200.219 132.302 198.527 130.871 196.072C130.345 195.173 128.826 195.966 129.345 196.861C130.743 199.256 127.806 201.195 127.196 203.435C126.881 204.589 127.337 205.621 127.9 206.645C128.81 208.307 129.087 210.001 129.108 211.835C129.124 212.845 130.887 212.845 130.875 211.835Z" fill="#E6E7E8"/>
<defs>
<filter id="filter0_d_6_51" x="53.4561" y="100.536" width="146.685" height="56.128" filterUnits="userSpaceOnUse" color-interpolation-filters="sRGB">
<feFlood flood-opacity="0" result="BackgroundImageFix"/>
<feColorMatrix in="SourceAlpha" type="matrix" values="0 0 0 0 0 0 0 0 0 0 0 0 0 0 0 0 0 0 127 0" result="hardAlpha"/>
<feOffset dy="4"/>
<feGaussianBlur stdDeviation="2"/>
<feComposite in2="hardAlpha" operator="out"/>
<feColorMatrix type="matrix" values="0 0 0 0 0 0 0 0 0 0 0 0 0 0 0 0 0 0 0.25 0"/>
<feBlend mode="normal" in2="BackgroundImageFix" result="effect1_dropShadow_6_51"/>
<feBlend mode="normal" in="SourceGraphic" in2="effect1_dropShadow_6_51" result="shape"/>
</filter>
</defs>
</svg>
