<svg width="135" height="201" viewBox="0 0 135 201" fill="none" xmlns="http://www.w3.org/2000/svg">
<path d="M124.862 131.208H82.1431V195.819H124.862V131.208Z" fill="#B2B2B2"/>
<path d="M82.3105 131.208H39.5918V195.819H82.3105V131.208Z" fill="#D1D1D1"/>
<path d="M59.9297 52.8553L58.1086 87.5858L49.5454 113.054H64.962L72.9692 91.1105L75.4714 66.1724L59.9297 52.8553Z" fill="#F7EBE7"/>
<path d="M59.4982 174.246L62.5982 188.014L52.1861 189.193L49.2251 175.637L59.4982 174.246Z" fill="#FCC9A7"/>
<path d="M63.2272 186.768C62.9631 186.026 62.129 185.761 61.559 186.238C60.4469 187.179 58.4451 188.332 55.4841 188.054C52.4119 187.762 51.2581 186.039 50.8133 184.794C50.577 184.145 49.9236 183.813 49.3398 184.092L30.698 193.023C29.572 193.566 28.6822 194.573 28.2374 195.832C27.8203 197.011 28.6545 198.283 29.8223 198.257L62.0317 197.409C63.2967 197.382 64.2697 196.19 64.1584 194.812L63.6302 188.054C63.6163 187.948 63.6025 187.828 63.5608 187.722L63.2272 186.768Z" fill="#1F252A"/>
<path d="M59.3182 107.674H35.1437C35.1437 107.674 20.4222 106.892 19.5464 118.407C18.6706 129.922 41.1352 162.864 44.6523 180.461L64.8648 178.871L50.3101 131.022L86.5092 131.221C89.1922 131.234 91.8612 130.863 94.3913 130.028C101.439 127.696 112.199 124.357 106.333 105.859L59.3182 107.674Z" fill="#092330"/>
<path d="M77.9772 174.299L82.8984 190.757L72.4862 191.936L67.7041 175.69L77.9772 174.299Z" fill="#FCC9A7"/>
<path d="M83.5195 189.511C83.2554 188.769 82.4213 188.504 81.8514 188.981C80.7393 189.922 78.7375 191.075 75.7765 190.796C72.7043 190.505 71.5505 188.782 71.1056 187.537C70.8693 186.887 70.216 186.556 69.6321 186.834L50.9904 195.766C49.8644 196.309 48.9747 197.316 48.5299 198.575C48.1128 199.754 48.9469 201.026 50.1146 201L82.8801 200.152C84.1451 200.125 85.1182 198.932 85.007 197.554L83.9088 190.796C83.8949 190.69 83.881 190.571 83.8393 190.465L83.5195 189.511Z" fill="#1F252A"/>
<path d="M88.2047 39.2068C88.7469 39.7103 113.005 45.6069 113.005 45.6069L107.82 58.7385L81.2959 56.8304L88.2047 39.2068Z" fill="#F7EBE7"/>
<path d="M78.2 42.374C78.2 42.374 62.3941 47.8731 59.9336 52.8554C60.7816 59.8916 63.3811 66.6628 67.6627 72.4534C72.9175 79.5559 79.4094 91.7599 78.2139 107.674H123.908C123.908 107.674 121.447 62.8996 107.921 45.7132L78.2 42.374Z" fill="#F7EBE7"/>
<path d="M83.3826 49.4763C87.8727 48.6018 90.7642 44.4276 89.8467 40.1476L87.1638 27.6255L70.9131 30.7925L73.596 43.3145C74.5135 47.5946 78.8925 50.3508 83.3826 49.4763Z" fill="#FCC9A7"/>
<path d="M88.2805 31.9984C88.2805 31.9984 86.5707 42.1486 78.2855 42.7581C71.0289 43.2882 71.724 33.2838 71.724 33.2838L88.2805 31.9984Z" fill="#F4BE9A"/>
<path d="M78.9365 37.1928L80.3683 36.8747C87.5553 35.2846 92.0316 28.4472 90.3634 21.6098L88.4727 13.805C86.8045 6.95431 79.6316 2.68753 72.4585 4.27764L71.0265 4.59566C63.8395 6.18576 59.3632 13.0232 61.0314 19.8606L62.9221 27.6654C64.5903 34.5161 71.7634 38.7829 78.9365 37.1928Z" fill="#FCC9A7"/>
<path d="M85.8589 24.8563C85.5252 25.3996 85.2054 26.2212 85.0942 27.4668C84.969 29.0436 84.135 30.541 82.7448 31.4155C78.7551 33.9332 75.7109 27.5595 69.8167 28.6858C69.8167 28.6858 67.5091 29.0171 67.0503 31.4685C66.5916 33.9067 63.3803 29.6399 62.6713 26.7247C61.9623 23.8095 61.601 41.1549 76.114 39.6841C76.114 39.6841 83.44 39.4588 88.375 32.3431C88.9172 31.5613 89.2368 30.647 89.2646 29.7062C89.3063 28.3148 89.0979 26.2079 87.7078 24.6973C87.2211 24.1408 86.2481 24.2203 85.8589 24.8563Z" fill="#1C2226"/>
<path d="M85.8739 20.9207C85.8739 20.9207 79.6044 18.9463 80.6609 10.214C80.6609 10.214 65.0913 24.2599 53.5532 13.9508C53.5532 13.9508 58.7108 12.6389 60.8377 9.27322C64.7161 3.13807 75.865 -5.31598 84.7897 4.46317C84.7897 4.46317 95.6467 2.85982 92.5327 18.8006L85.8739 20.9207Z" fill="#1C2226"/>
<path d="M85.8738 20.9208C86.4716 23.359 89.0296 24.8829 91.5874 24.3263C94.1592 23.7565 95.7438 21.3184 95.1599 18.8802C94.5622 16.4421 92.0043 14.9182 89.4465 15.4747C86.8747 16.0445 85.2761 18.4827 85.8738 20.9208Z" fill="#FCC9A7"/>
<path d="M77.9465 48.9862L84.6608 49.1054L79.9622 58.381L74.8882 49.4897L77.9465 48.9862Z" fill="#0C2C40"/>
<path d="M90.4147 39.6178L81.7681 49.2379L87.3981 55.3996L97.7546 41.8307C97.7546 41.8307 95.0995 37.7627 90.4147 39.6178Z" fill="#FFF7F3"/>
<path d="M77.9486 48.9859L72.9719 54.3393L69.4688 45.9912C69.4688 45.9912 70.3862 42.2412 73.2499 42.9568L77.9486 48.9859Z" fill="#FFF7F3"/>
<path d="M79.7807 55.3863C79.7807 55.3863 73.2889 71.5259 74.9014 94.4234L81.2959 99.9887L88.7609 93.138L80.7122 54.3395L79.7807 55.3863Z" fill="#0C2C40"/>
<path d="M91.9171 93.7078L78.0158 98.0673L77.0981 105.846L95.5313 100.598L91.9171 93.7078Z" fill="#FCC9A7"/>
<path d="M80.0882 103.209C80.0882 107.754 76.2235 111.451 71.4414 111.451C66.6733 111.451 62.7949 107.767 62.7949 103.209C62.7949 98.6635 66.6594 94.9665 71.4414 94.9665C76.2096 94.9665 80.0882 98.6503 80.0882 103.209Z" fill="#FCC9A7"/>
<path d="M78.2001 107.674H54.0395C54.0395 107.674 39.318 106.892 38.4422 118.407C37.5664 129.922 61.6851 164.984 65.2022 182.568L85.4149 180.978L69.2058 131.009L105.405 131.208C108.088 131.221 110.757 130.85 113.287 130.015C120.335 127.683 131.095 124.344 125.228 105.845L78.2001 107.674Z" fill="#0C2C40"/>
<path d="M5.31344 66.9543H47.087C48.4632 66.9543 49.6448 67.8686 49.9367 69.154L57.8049 104.322C58.1941 106.044 56.804 107.674 54.9551 107.674H12.4865C11.0964 107.674 9.9009 106.733 9.63677 105.435L2.46367 70.267C2.10224 68.5444 3.47846 66.9543 5.31344 66.9543Z" fill="#B2B2B2"/>
<path d="M2.90768 66.9543H44.6674C46.0436 66.9543 47.2253 67.8686 47.5172 69.154L55.3852 104.322C55.7744 106.044 54.3983 107.674 52.5356 107.674H10.0808C8.69064 107.674 7.49514 106.733 7.23101 105.435L0.0579125 70.267C-0.303522 68.5444 1.07269 66.9543 2.90768 66.9543Z" fill="#D1D1D1"/>
<path d="M56.6664 104.666H85.2059C86.0817 104.666 86.7767 105.342 86.7767 106.164C86.7767 106.998 86.0678 107.661 85.2059 107.661H56.1104L56.6664 104.666Z" fill="#B2B2B2"/>
<path d="M28.7653 86.3932C28.7653 88.7916 26.7357 90.7262 24.2196 90.7262C21.7034 90.7262 19.6738 88.7783 19.6738 86.3932C19.6738 83.9948 21.7173 82.0602 24.2196 82.0602C26.7357 82.0602 28.7653 83.9948 28.7653 86.3932Z" fill="white"/>
<path d="M103.037 58.1157L118.301 81.6095L81.7681 94.0388L86.7726 104.348C86.7726 104.348 118.009 101.009 133.106 89.9178C134.496 88.8975 135.191 87.2411 134.955 85.5848C134.246 80.2844 131.215 67.4178 118.301 49.1317C115.673 45.4082 110.447 44.2818 106.373 46.5345C102.134 48.8666 100.646 54.0345 103.037 58.1157Z" fill="#F7EBE7"/>
<path d="M91.4883 90.7264L118.304 81.6098L104.889 60.9517" stroke="#EADDD8" stroke-width="0.7599" stroke-miterlimit="10" stroke-linecap="round" stroke-linejoin="round"/>
<path d="M73.3297 82.9479L66.7266 66.3313" stroke="#EADDD8" stroke-width="0.7599" stroke-miterlimit="10" stroke-linecap="round" stroke-linejoin="round"/>
<path d="M91.9175 103.646C91.9175 103.646 112.436 101.194 122.778 95.5496" stroke="#EADDD8" stroke-width="0.7599" stroke-miterlimit="10" stroke-linecap="round" stroke-linejoin="round"/>
</svg>
