<svg width="48" height="48" viewBox="0 0 48 48" fill="none" xmlns="http://www.w3.org/2000/svg">
<path d="M48 5.68213C46.2026 6.66193 44.2961 7.30508 42.3439 7.59017C44.3773 6.0905 45.9386 3.71572 46.6738 0.886189C44.7408 2.29769 42.6259 3.29218 40.4205 3.82669C38.6241 1.47175 36.0649 0 33.2323 0C27.7937 0 23.3843 5.42557 23.3843 12.1173C23.3843 13.0672 23.4714 13.9919 23.6392 14.879C15.4549 14.3735 8.19862 9.54943 3.34144 2.21812C2.49394 4.00781 2.00831 6.08958 2.00831 8.31001C2.00831 12.5142 3.747 16.223 6.38925 18.3961C4.82541 18.3358 3.29597 17.8161 1.92863 16.8803C1.92806 16.931 1.92806 16.9818 1.92806 17.0328C1.92806 22.9039 5.32256 27.8015 9.82744 28.9148C8.37729 29.4001 6.85618 29.4711 5.38031 29.1224C6.63338 33.9366 10.2703 37.4398 14.5794 37.5379C11.2091 40.7878 6.96281 42.7251 2.34919 42.7251C1.55419 42.7251 0.770438 42.6676 0 42.5557C4.35806 45.9939 9.53438 48 15.0956 48C33.2094 48 43.1145 29.5354 43.1145 13.5226C43.1145 12.997 43.1051 12.4745 43.086 11.9549C45.0139 10.2399 46.678 8.11578 48 5.68213Z" fill="#55ACEE"/>
</svg>
